<svg width="44" height="44" viewBox="0 0 44 44" fill="none" xmlns="http://www.w3.org/2000/svg">
<rect width="44" height="44" rx="15" fill="#FCF9F9" fill-opacity="0.1"/>
<rect x="0.5" y="0.5" width="43" height="43" rx="14.5" stroke="#FCF9F9" stroke-opacity="0.1"/>
<g opacity="0.8">
<path d="M33.1279 17.4115C33.1142 16.4714 32.9401 15.5388 32.6067 14.6596C32.0233 13.1582 30.8354 11.971 29.3315 11.3899C28.4621 11.0633 27.5428 10.8882 26.6124 10.8683C25.4158 10.8149 25.0364 10.8 21.9988 10.8C18.9612 10.8 18.5719 10.8 17.384 10.8683C16.4548 10.8882 15.5355 11.0633 14.6661 11.3899C13.1622 11.971 11.973 13.1582 11.3909 14.6596C11.0638 15.5276 10.8871 16.4453 10.8697 17.373C10.8162 18.5688 10.8 18.9476 10.8 21.9801C10.8 25.0127 10.8 25.4001 10.8697 26.5873C10.8884 27.5162 11.0638 28.4326 11.3909 29.3032C11.9743 30.8033 13.1622 31.9905 14.6673 32.5716C15.5331 32.9094 16.4523 33.1006 17.3852 33.1304C18.5831 33.1838 18.9625 33.2 22.0001 33.2C25.0376 33.2 25.427 33.2 26.6149 33.1304C27.5441 33.1118 28.4633 32.9367 29.334 32.6101C30.8379 32.0277 32.0258 30.8405 32.6092 29.3404C32.9363 28.4711 33.1117 27.5547 33.1304 26.6245C33.1839 25.4299 33.2001 25.0511 33.2001 22.0174C33.1976 18.9848 33.1976 18.5999 33.1279 17.4115ZM21.9913 27.7149C18.8144 27.7149 16.2408 25.1455 16.2408 21.9739C16.2408 18.8023 18.8144 16.233 21.9913 16.233C25.1658 16.233 27.7419 18.8023 27.7419 21.9739C27.7419 25.1455 25.1658 27.7149 21.9913 27.7149ZM27.9707 17.3593C27.2281 17.3593 26.6298 16.7607 26.6298 16.0206C26.6298 15.2805 27.2281 14.6819 27.9707 14.6819C28.7108 14.6819 29.3104 15.2805 29.3104 16.0206C29.3104 16.7607 28.7108 17.3593 27.9707 17.3593Z" fill="#FCF9F9"/>
<path d="M21.993 25.479C23.9279 25.479 25.4965 23.9104 25.4965 21.9755C25.4965 20.0406 23.9279 18.472 21.993 18.472C20.0581 18.472 18.4895 20.0406 18.4895 21.9755C18.4895 23.9104 20.0581 25.479 21.993 25.479Z" fill="#FCF9F9"/>
</g>
</svg>
