<svg width="88" height="88" viewBox="0 0 88 88" fill="none" xmlns="http://www.w3.org/2000/svg">
<path d="M43.1335 0.504534C43.5181 -0.16334 44.4819 -0.16334 44.8665 0.504534L50.9337 11.0385C51.2243 11.543 51.8827 11.6936 52.3637 11.3655L62.5123 4.44299C63.1516 4.00687 64.0228 4.43115 64.0736 5.20342L64.8648 17.2239C64.9035 17.8107 65.4378 18.2377 66.0187 18.1459L78.2024 16.2213C78.9739 16.0994 79.581 16.8695 79.2825 17.5913L74.6811 28.7157C74.4534 29.2661 74.7542 29.8921 75.3261 30.0583L87.1082 33.4815C87.8637 33.701 88.0816 34.6666 87.4935 35.1892L78.421 43.2525C77.9734 43.6503 77.9734 44.3497 78.421 44.7475L87.4935 52.8108C88.0816 53.3334 87.8637 54.299 87.1082 54.5185L75.3261 57.9417C74.7542 58.1079 74.4534 58.7339 74.6811 59.2843L79.2825 70.4087C79.581 71.1305 78.9739 71.9006 78.2024 71.7787L66.0187 69.8541C65.4378 69.7623 64.9035 70.1893 64.8648 70.7762L64.0736 82.7966C64.0228 83.5688 63.1516 83.9931 62.5123 83.557L52.3637 76.6345C51.8827 76.3064 51.2243 76.457 50.9337 76.9615L44.8665 87.4955C44.4819 88.1633 43.5181 88.1633 43.1335 87.4955L37.0663 76.9615C36.7757 76.457 36.1173 76.3064 35.6363 76.6345L25.4877 83.557C24.8483 83.9931 23.9772 83.5688 23.9264 82.7966L23.1352 70.7762C23.0965 70.1893 22.5622 69.7623 21.9813 69.8541L9.79764 71.7787C9.02613 71.9006 8.41899 71.1305 8.71754 70.4087L13.3189 59.2843C13.5466 58.7339 13.2458 58.1079 12.6739 57.9417L0.891789 54.5185C0.136307 54.299 -0.08156 53.3334 0.50648 52.8108L9.579 44.7475C10.0266 44.3497 10.0266 43.6503 9.579 43.2525L0.50648 35.1892C-0.0815601 34.6666 0.136306 33.701 0.891788 33.4815L12.6739 30.0583C13.2458 29.8921 13.5466 29.2661 13.3189 28.7157L8.71754 17.5913C8.41899 16.8695 9.02613 16.0994 9.79764 16.2213L21.9813 18.1459C22.5622 18.2377 23.0965 17.8107 23.1352 17.2239L23.9264 5.20342C23.9772 4.43116 24.8483 4.00687 25.4877 4.44299L35.6363 11.3655C36.1173 11.6936 36.7757 11.543 37.0663 11.0385L43.1335 0.504534Z" fill="#1C2225"/>
</svg>
