<!-- Generated by IcoMoon.io -->
<svg version="1.1" xmlns="http://www.w3.org/2000/svg" width="32" height="32" viewBox="0 0 32 32">
<path opacity="0.1" fill="#000" d="M10.909 0h10.182c6.025 0 10.909 4.884 10.909 10.909v10.182c0 6.025-4.884 10.909-10.909 10.909h-10.182c-6.025 0-10.909-4.884-10.909-10.909v-10.182c0-6.025 4.884-10.909 10.909-10.909z"></path>
<path fill="none" stroke="#000" stroke-width="0.7273" stroke-miterlimit="4" stroke-linecap="butt" stroke-linejoin="miter" d="M10.909 0.364h10.182c5.824 0 10.545 4.721 10.545 10.545v10.182c0 5.824-4.721 10.545-10.545 10.545h-10.182c-5.824 0-10.545-4.721-10.545-10.545v-10.182c0-5.824 4.721-10.545 10.545-10.545z"></path>
<path opacity="0.8" fill="#000" d="M18.24 8.771c0.153 0 0.305 0 0.611 0v2.291c-0.153 0-0.458 0-0.764 0s-0.611 0-0.764 0.153c-0.153 0.153-0.153 0.305-0.153 0.662 0 0.305 0 0.509 0 0.815h1.68v1.935h-1.68v8.4h-2.596v-8.451h-1.375v-1.935h1.375v-0.662c0-1.12 0.153-1.935 0.458-2.291 0.458-0.662 1.375-0.967 2.749-0.967 0.153 0.051 0.305 0.051 0.458 0.051z"></path>
</svg>
