<!-- Generated by IcoMoon.io -->
<svg version="1.1" xmlns="http://www.w3.org/2000/svg" width="32" height="32" viewBox="0 0 32 32">
<path opacity="0.1" fill="#000" d="M10.909 0h10.182c6.025 0 10.909 4.884 10.909 10.909v10.182c0 6.025-4.884 10.909-10.909 10.909h-10.182c-6.025 0-10.909-4.884-10.909-10.909v-10.182c0-6.025 4.884-10.909 10.909-10.909z"></path>
<path fill="none" stroke="#000" stroke-width="0.7273" stroke-miterlimit="4" stroke-linecap="butt" stroke-linejoin="miter" d="M10.909 0.364h10.182c5.824 0 10.545 4.721 10.545 10.545v10.182c0 5.824-4.721 10.545-10.545 10.545h-10.182c-5.824 0-10.545-4.721-10.545-10.545v-10.182c0-5.824 4.721-10.545 10.545-10.545z"></path>
<path opacity="0.8" fill="#000" d="M24.093 12.663c-0.010-0.684-0.137-1.362-0.379-2.001-0.424-1.092-1.288-1.955-2.382-2.378-0.632-0.238-1.301-0.365-1.978-0.379-0.87-0.039-1.146-0.050-3.355-0.050s-2.492 0-3.356 0.050c-0.676 0.014-1.344 0.142-1.977 0.379-1.094 0.423-1.959 1.286-2.382 2.378-0.238 0.631-0.366 1.299-0.379 1.973-0.039 0.87-0.051 1.145-0.051 3.351s0 2.487 0.051 3.351c0.014 0.676 0.141 1.342 0.379 1.975 0.424 1.091 1.288 1.954 2.383 2.377 0.63 0.246 1.298 0.385 1.977 0.406 0.871 0.039 1.147 0.051 3.356 0.051s2.492 0 3.356-0.051c0.676-0.014 1.344-0.141 1.978-0.378 1.094-0.424 1.958-1.287 2.382-2.378 0.238-0.632 0.365-1.299 0.379-1.975 0.039-0.869 0.051-1.144 0.051-3.351-0.002-2.206-0.002-2.485-0.052-3.35zM15.994 20.156c-2.31 0-4.182-1.869-4.182-4.175s1.872-4.175 4.182-4.175c2.309 0 4.182 1.869 4.182 4.175s-1.874 4.175-4.182 4.175zM20.342 12.625c-0.54 0-0.975-0.435-0.975-0.974s0.435-0.974 0.975-0.974c0.538 0 0.974 0.435 0.974 0.974s-0.436 0.974-0.974 0.974z"></path>
<path opacity="0.8" fill="#000" d="M15.995 18.53c1.407 0 2.548-1.141 2.548-2.548s-1.141-2.548-2.548-2.548c-1.407 0-2.548 1.141-2.548 2.548s1.141 2.548 2.548 2.548z"></path>
</svg>
