<!-- Generated by IcoMoon.io -->
<svg version="1.1" xmlns="http://www.w3.org/2000/svg" width="32" height="32" viewBox="0 0 32 32">
<path opacity="0.1" fill="#000" d="M10.909 0h10.182c6.025 0 10.909 4.884 10.909 10.909v10.182c0 6.025-4.884 10.909-10.909 10.909h-10.182c-6.025 0-10.909-4.884-10.909-10.909v-10.182c0-6.025 4.884-10.909 10.909-10.909z"></path>
<path fill="none" stroke="#000" stroke-width="0.7273" stroke-miterlimit="4" stroke-linecap="butt" stroke-linejoin="miter" d="M10.909 0.364h10.182c5.824 0 10.545 4.721 10.545 10.545v10.182c0 5.824-4.721 10.545-10.545 10.545h-10.182c-5.824 0-10.545-4.721-10.545-10.545v-10.182c0-5.824 4.721-10.545 10.545-10.545z"></path>
<path opacity="0.8" fill="#000" d="M21.244 9.636c-0.865-0.051-2.647-0.102-5.345-0.102h-0.356c-2.596 0-4.327 0.051-5.193 0.153-1.171 0.102-1.985 0.407-2.444 0.815-0.407 0.356-0.713 1.018-0.815 1.884-0.051 0.56-0.102 1.731-0.102 3.513v0.255c0 1.68 0.051 2.851 0.153 3.411 0.153 0.815 0.407 1.425 0.916 1.782 0.509 0.407 1.375 0.662 2.596 0.764 0.865 0.051 2.647 0.102 5.345 0.102h0.356c2.596 0 4.327-0.051 5.193-0.153 1.171-0.102 1.985-0.407 2.444-0.815 0.407-0.356 0.713-1.018 0.815-1.884 0.051-0.56 0.102-1.731 0.102-3.513v-0.255c0-1.68-0.051-2.851-0.153-3.411-0.153-0.815-0.407-1.425-0.916-1.782-0.509-0.407-1.375-0.662-2.596-0.764zM19.258 15.898l-5.6 3.36v-6.72l5.6 3.36z"></path>
</svg>
